<svg width="24" height="25" viewBox="0 0 24 25" fill="none" xmlns="http://www.w3.org/2000/svg">
<path d="M4 12.1545C4 12.4198 4.10536 12.6741 4.29289 12.8616C4.48043 13.0492 4.73478 13.1545 5 13.1545C5.26522 13.1545 5.51957 13.0492 5.70711 12.8616C5.89464 12.6741 6 12.4198 6 12.1545C6 11.8893 5.89464 11.635 5.70711 11.4474C5.51957 11.2599 5.26522 11.1545 5 11.1545C4.73478 11.1545 4.48043 11.2599 4.29289 11.4474C4.10536 11.635 4 11.8893 4 12.1545Z" stroke="#354052" stroke-width="2" stroke-linecap="round" stroke-linejoin="round"/>
<path d="M11 12.1545C11 12.4198 11.1054 12.6741 11.2929 12.8616C11.4804 13.0492 11.7348 13.1545 12 13.1545C12.2652 13.1545 12.5196 13.0492 12.7071 12.8616C12.8946 12.6741 13 12.4198 13 12.1545C13 11.8893 12.8946 11.635 12.7071 11.4474C12.5196 11.2599 12.2652 11.1545 12 11.1545C11.7348 11.1545 11.4804 11.2599 11.2929 11.4474C11.1054 11.635 11 11.8893 11 12.1545Z" stroke="#354052" stroke-width="2" stroke-linecap="round" stroke-linejoin="round"/>
<path d="M18 12.1545C18 12.4198 18.1054 12.6741 18.2929 12.8616C18.4804 13.0492 18.7348 13.1545 19 13.1545C19.2652 13.1545 19.5196 13.0492 19.7071 12.8616C19.8946 12.6741 20 12.4198 20 12.1545C20 11.8893 19.8946 11.635 19.7071 11.4474C19.5196 11.2599 19.2652 11.1545 19 11.1545C18.7348 11.1545 18.4804 11.2599 18.2929 11.4474C18.1054 11.635 18 11.8893 18 12.1545Z" stroke="#354052" stroke-width="2" stroke-linecap="round" stroke-linejoin="round"/>
</svg>
