<svg width="20" height="21" viewBox="0 0 20 21" fill="none" xmlns="http://www.w3.org/2000/svg">
<path d="M11.6667 17.1546V12.3213C11.6667 12.0451 11.8906 11.8213 12.1667 11.8213H17.0001C17.2762 11.8213 17.5001 12.0451 17.5001 12.3213V17.1546C17.5001 17.4308 17.2762 17.6546 17.0001 17.6546H12.1667C11.8906 17.6546 11.6667 17.4308 11.6667 17.1546Z" stroke="#757575" stroke-width="1.5"/>
<path d="M2.5 17.1546V12.3213C2.5 12.0451 2.72386 11.8213 3 11.8213H7.83333C8.10947 11.8213 8.33333 12.0451 8.33333 12.3213V17.1546C8.33333 17.4308 8.10947 17.6546 7.83333 17.6546H3C2.72386 17.6546 2.5 17.4308 2.5 17.1546Z" stroke="#757575" stroke-width="1.5"/>
<path d="M11.6667 7.98787V3.15454C11.6667 2.8784 11.8906 2.65454 12.1667 2.65454H17.0001C17.2762 2.65454 17.5001 2.8784 17.5001 3.15454V7.98787C17.5001 8.26402 17.2762 8.48787 17.0001 8.48787H12.1667C11.8906 8.48787 11.6667 8.26402 11.6667 7.98787Z" stroke="#757575" stroke-width="1.5"/>
<path d="M2.5 7.98787V3.15454C2.5 2.8784 2.72386 2.65454 3 2.65454H7.83333C8.10947 2.65454 8.33333 2.8784 8.33333 3.15454V7.98787C8.33333 8.26402 8.10947 8.48787 7.83333 8.48787H3C2.72386 8.48787 2.5 8.26402 2.5 7.98787Z" stroke="#757575" stroke-width="1.5"/>
</svg>
